# xmcd CD database file
#
# Track frame offsets:
#	150
#	10503
#	25696
#	38678
#	50988
#	65543
#	82118
#	96661
#	115676
#	137166
#	156063
#	166063
#	177533
#	189106
#	209636
#	220105
#	234313
#	251455
#
# Disc length: 3492 seconds
#
# Revision: 2
# Processed by: cddbd v1.4PL0 Copyright (c) Steve Scherf et al.
# Submitted via: CDex 1.40Release
#
DISCID=f20da212
DTITLE=Lena Horne - Lena Horne
DYEAR=1900
DGENRE=Blues
TTITLE0=Lady is a tramp
TTITLE1=Lover man
TTITLE2=Love me or leave me
TTITLE3=At Long Last Love
TTITLE4=Ours
TTITLE5=Ev'ry Time we say Goodbye
TTITLE6=A Fine Romance
TTITLE7=When I fall in love
TTITLE8=Look to the rainbow
TTITLE9=Close enough for love
TTITLE10=What'll I Do?
TTITLE11=Old Devil Moon
TTITLE12=Night and Day
TTITLE13=Joy
TTITLE14=why was I born?
TTITLE15=The eagle and me
TTITLE16=September Song
TTITLE17=My Blue Heaven
EXTD=ID3G: 0
EXTT0=
EXTT1=
EXTT2=
EXTT3=
EXTT4=
EXTT5=
EXTT6=
EXTT7=
EXTT8=
EXTT9=
EXTT10=
EXTT11=
EXTT12=
EXTT13=
EXTT14=
EXTT15=
EXTT16=
EXTT17=
PLAYORDER=
